<svg version="1.1" id="Layer_1" xmlns="http://www.w3.org/2000/svg" xmlns:xlink="http://www.w3.org/1999/xlink" x="0px" y="0px"
	 width="100%" viewBox="0 0 500 500" enable-background="new 0 0 500 500" xml:space="preserve">
<path fill="#010101" opacity="1.000000" stroke="none" 
	d="
M328.000000,501.000000 
	C218.666687,501.000000 109.833382,501.000000 1.000058,501.000000 
	C1.000039,334.333405 1.000039,167.666794 1.000019,1.000148 
	C167.666565,1.000099 334.333130,1.000099 500.999756,1.000049 
	C500.999847,167.666519 500.999847,334.333038 500.999939,500.999786 
	C443.500000,501.000000 386.000000,501.000000 328.000000,501.000000 
M233.659256,318.881897 
	C239.356064,328.749298 245.052856,338.616699 251.353714,349.530334 
	C253.700989,346.139069 255.344727,344.092712 256.639252,341.845184 
	C280.166168,300.998383 303.685974,260.147369 327.128662,219.252182 
	C337.147522,201.774582 346.558899,183.933090 357.042175,166.742310 
	C365.581390,152.739532 377.350586,142.463074 394.871033,141.055893 
	C394.871033,139.024796 394.871033,137.151398 394.871033,135.152313 
	C374.691772,135.152313 354.882629,134.922440 335.082764,135.250916 
	C325.427795,135.411087 318.831482,140.856750 314.105530,149.212570 
	C298.935547,176.034378 283.531403,202.723785 268.208130,229.458847 
	C262.848938,238.809204 257.462402,248.143875 251.772141,258.035400 
	C250.512451,256.006012 249.618759,254.659531 248.816727,253.260483 
	C229.432953,219.447998 209.779404,185.785400 190.834946,151.728394 
	C184.208618,139.816055 175.183258,134.472672 161.735992,134.865250 
	C146.418930,135.312393 131.078705,134.966248 115.748558,134.964981 
	C112.964096,134.964752 110.179626,134.964966 107.216415,134.964966 
	C107.216415,137.332108 107.216415,139.101730 107.216415,140.833359 
	C125.958885,143.998123 135.578690,150.104660 146.015488,166.158401 
	C149.904465,172.140366 152.899826,178.696121 156.465622,184.896515 
	C182.040070,229.366684 207.656540,273.812683 233.659256,318.881897 
M118.612938,338.153992 
	C116.945122,348.611481 109.713753,351.789062 100.345200,351.844269 
	C100.345200,354.046417 100.345200,355.929901 100.345200,357.850159 
	C124.811844,357.850159 148.893402,357.850159 173.146942,357.850159 
	C173.146942,355.698883 173.146942,353.819916 173.146942,351.981293 
	C156.711853,350.346985 153.625793,346.887299 153.625488,330.465088 
	C153.625107,310.807220 153.733231,291.148102 153.508926,271.492767 
	C153.475296,268.543884 152.463852,265.259583 150.918594,262.733765 
	C143.793060,251.086533 136.321014,239.651199 128.967667,228.143448 
	C125.873100,223.300568 122.764816,218.466431 119.662773,213.628311 
	C119.338768,213.723618 119.014763,213.818939 118.690758,213.914246 
	C118.690758,255.019760 118.690758,296.125275 118.612938,338.153992 
M384.031403,286.500000 
	C384.031403,262.424774 384.031403,238.349548 384.031403,213.196457 
	C382.893280,214.480087 382.429260,214.882187 382.112427,215.378311 
	C371.538544,231.936890 360.925018,248.470840 350.499268,265.122345 
	C349.447479,266.802216 349.173706,269.198883 349.163818,271.265900 
	C349.066315,291.585083 349.103668,311.904907 349.097931,332.224548 
	C349.093842,346.800049 345.021515,351.112793 330.396332,352.078674 
	C330.110260,352.097565 329.842010,352.386169 329.376038,352.660400 
	C329.376038,354.329041 329.376038,356.094879 329.376038,357.992859 
	C353.795685,357.992859 377.990448,357.992859 402.212891,357.992859 
	C402.212891,355.828278 402.212891,354.060059 402.212891,352.331146 
	C387.307709,350.421661 384.032288,346.609161 384.031555,331.470398 
	C384.030884,316.813599 384.031403,302.156799 384.031403,286.500000 
M224.501114,144.079865 
	C233.252335,159.331375 242.003540,174.582886 251.148636,190.520859 
	C261.889618,171.770294 272.173798,153.817169 282.812836,135.244537 
	C261.361115,135.244537 240.851242,135.244537 219.537399,135.244537 
	C221.257629,138.328262 222.686646,140.889908 224.501114,144.079865 
z"/>
<path fill="#FCFCFC" opacity="1.000000" stroke="none" 
	d="
M233.459457,318.574158 
	C207.656540,273.812683 182.040070,229.366684 156.465622,184.896515 
	C152.899826,178.696121 149.904465,172.140366 146.015488,166.158401 
	C135.578690,150.104660 125.958885,143.998123 107.216415,140.833359 
	C107.216415,139.101730 107.216415,137.332108 107.216415,134.964966 
	C110.179626,134.964966 112.964096,134.964752 115.748558,134.964981 
	C131.078705,134.966248 146.418930,135.312393 161.735992,134.865250 
	C175.183258,134.472672 184.208618,139.816055 190.834946,151.728394 
	C209.779404,185.785400 229.432953,219.447998 248.816727,253.260483 
	C249.618759,254.659531 250.512451,256.006012 251.772141,258.035400 
	C257.462402,248.143875 262.848938,238.809204 268.208130,229.458847 
	C283.531403,202.723785 298.935547,176.034378 314.105530,149.212570 
	C318.831482,140.856750 325.427795,135.411087 335.082764,135.250916 
	C354.882629,134.922440 374.691772,135.152313 394.871033,135.152313 
	C394.871033,137.151398 394.871033,139.024796 394.871033,141.055893 
	C377.350586,142.463074 365.581390,152.739532 357.042175,166.742310 
	C346.558899,183.933090 337.147522,201.774582 327.128662,219.252182 
	C303.685974,260.147369 280.166168,300.998383 256.639252,341.845184 
	C255.344727,344.092712 253.700989,346.139069 251.353714,349.530334 
	C245.052856,338.616699 239.356064,328.749298 233.459457,318.574158 
z"/>
<path fill="#FAFAFA" opacity="1.000000" stroke="none" 
	d="
M118.651848,337.692383 
	C118.690758,296.125275 118.690758,255.019760 118.690758,213.914246 
	C119.014763,213.818939 119.338768,213.723618 119.662773,213.628311 
	C122.764816,218.466431 125.873100,223.300568 128.967667,228.143448 
	C136.321014,239.651199 143.793060,251.086533 150.918594,262.733765 
	C152.463852,265.259583 153.475296,268.543884 153.508926,271.492767 
	C153.733231,291.148102 153.625107,310.807220 153.625488,330.465088 
	C153.625793,346.887299 156.711853,350.346985 173.146942,351.981293 
	C173.146942,353.819916 173.146942,355.698883 173.146942,357.850159 
	C148.893402,357.850159 124.811844,357.850159 100.345200,357.850159 
	C100.345200,355.929901 100.345200,354.046417 100.345200,351.844269 
	C109.713753,351.789062 116.945122,348.611481 118.651848,337.692383 
z"/>
<path fill="#FAFAFA" opacity="1.000000" stroke="none" 
	d="
M384.031403,287.000000 
	C384.031403,302.156799 384.030884,316.813599 384.031555,331.470398 
	C384.032288,346.609161 387.307709,350.421661 402.212891,352.331146 
	C402.212891,354.060059 402.212891,355.828278 402.212891,357.992859 
	C377.990448,357.992859 353.795685,357.992859 329.376038,357.992859 
	C329.376038,356.094879 329.376038,354.329041 329.376038,352.660400 
	C329.842010,352.386169 330.110260,352.097565 330.396332,352.078674 
	C345.021515,351.112793 349.093842,346.800049 349.097931,332.224548 
	C349.103668,311.904907 349.066315,291.585083 349.163818,271.265900 
	C349.173706,269.198883 349.447479,266.802216 350.499268,265.122345 
	C360.925018,248.470840 371.538544,231.936890 382.112427,215.378311 
	C382.429260,214.882187 382.893280,214.480087 384.031403,213.196457 
	C384.031403,238.349548 384.031403,262.424774 384.031403,287.000000 
z"/>
<path fill="#F8F8F8" opacity="1.000000" stroke="none" 
	d="
M224.308380,143.765717 
	C222.686646,140.889908 221.257629,138.328262 219.537399,135.244537 
	C240.851242,135.244537 261.361115,135.244537 282.812836,135.244537 
	C272.173798,153.817169 261.889618,171.770294 251.148636,190.520859 
	C242.003540,174.582886 233.252335,159.331375 224.308380,143.765717 
z"/>
</svg>